<?xml version="1.0" standalone="no"?>
<!DOCTYPE svg PUBLIC "-//W3C//DTD SVG 20010904//EN"
 "http://www.w3.org/TR/2001/REC-SVG-20010904/DTD/svg10.dtd">
<svg version="1.0" xmlns="http://www.w3.org/2000/svg"
 width="1600.000000pt" height="1600.000000pt" viewBox="0 0 1600.000000 1600.000000"
 preserveAspectRatio="xMidYMid meet">

<g transform="translate(0.000000,1600.000000) scale(0.100000,-0.100000)"
fill="#000000" stroke="none">
<path d="M7766 12300 c-130 -15 -314 -49 -433 -80 -98 -25 -119 -28 -175 -20
-86 13 -323 12 -411 -1 -375 -54 -683 -165 -942 -337 -113 -75 -285 -240 -358
-343 -106 -150 -186 -350 -209 -521 l-11 -87 -74 -46 c-40 -26 -109 -81 -154
-122 -179 -169 -269 -357 -269 -566 0 -220 101 -472 252 -624 l61 -61 -84 34
c-96 39 -119 39 -237 -3 -147 -52 -238 -148 -295 -313 -25 -70 -31 -106 -35
-207 -2 -66 -2 -132 2 -146 5 -20 32 -39 132 -91 150 -79 290 -169 397 -257
174 -142 210 -160 346 -179 80 -11 96 -19 107 -53 4 -12 24 -58 46 -102 l40
-80 -39 -29 c-163 -129 -185 -249 -66 -371 55 -57 143 -113 263 -166 103 -46
108 -51 245 -187 152 -151 266 -245 360 -297 76 -42 342 -117 535 -150 339
-58 742 -79 1355 -72 480 6 565 11 885 53 369 49 708 128 851 200 34 17 112
95 310 309 145 158 281 307 301 332 35 41 58 95 58 134 0 9 23 56 51 105 151
263 255 530 323 835 14 64 26 123 26 132 0 8 29 31 66 51 258 142 465 412 581
759 37 111 37 114 38 272 0 183 -11 224 -89 338 -151 221 -408 261 -650 100
l-74 -49 -57 135 c-274 646 -762 1166 -1385 1475 -299 149 -578 235 -910 282
-125 18 -561 27 -674 14z m-642 -225 c161 -33 299 -91 416 -173 70 -49 190
-160 221 -204 l20 -27 -58 -30 c-62 -31 -168 -113 -177 -137 -4 -11 3 -10 32
5 81 41 256 93 368 108 195 28 355 -3 497 -96 214 -140 315 -359 262 -564 -56
-216 -222 -342 -477 -363 -86 -7 -237 6 -336 29 l-53 12 41 54 c113 150 175
318 194 521 l6 65 -28 -75 c-155 -404 -454 -666 -892 -781 -68 -18 -114 -23
-225 -23 -151 -1 -210 11 -308 61 l-50 25 21 -29 c36 -51 121 -124 173 -148
l51 -23 -41 -7 c-22 -4 -76 -4 -118 0 -271 22 -469 111 -600 267 -18 22 -33
37 -33 32 0 -22 77 -162 118 -212 73 -91 134 -138 212 -165 24 -8 46 -19 48
-25 7 -23 -65 -98 -123 -127 -58 -29 -65 -30 -190 -30 -104 1 -146 5 -210 23
-104 30 -232 93 -290 144 -25 22 -45 37 -45 33 0 -4 16 -31 36 -61 53 -80 156
-169 243 -211 42 -21 78 -39 80 -40 8 -6 -49 -113 -88 -167 -97 -132 -249
-216 -386 -216 -111 1 -264 56 -343 125 -87 76 -163 212 -194 346 -20 90 -15
271 10 362 53 186 162 329 310 405 156 80 354 138 501 147 47 3 111 8 141 12
l55 5 -45 14 c-67 20 -229 44 -297 44 -33 0 -85 -5 -117 -11 -32 -6 -60 -8
-64 -5 -8 9 35 158 74 249 73 174 205 363 337 482 223 202 590 359 922 395
108 12 306 4 399 -15z m2920 -779 c67 -51 176 -237 226 -386 43 -128 61 -239
67 -416 7 -215 -1 -313 -30 -355 -25 -35 -39 -43 -150 -94 -57 -25 -95 -51
-136 -93 -69 -69 -96 -131 -106 -247 -18 -227 -61 -433 -120 -585 -41 -108
-72 -162 -126 -224 -61 -70 -74 -74 -107 -34 -14 18 -52 60 -84 93 l-56 60 43
65 c98 149 145 308 152 526 7 183 3 209 -41 260 -47 56 -116 90 -221 110 -196
37 -193 35 -207 182 -23 266 -85 516 -184 749 -47 110 -52 144 -30 198 18 42
54 65 166 106 233 85 440 119 716 116 l191 -2 37 -29z m1239 -874 c55 -25 141
-103 173 -159 123 -209 61 -540 -164 -876 -144 -216 -307 -331 -634 -447 -244
-87 -360 -178 -448 -350 -34 -66 -75 -199 -91 -295 -7 -38 -15 -73 -19 -78 -3
-4 -55 10 -114 30 l-108 38 -19 48 c-16 45 -16 52 -2 100 25 85 98 221 175
328 231 317 278 417 278 584 0 146 63 323 192 538 178 298 399 510 583 558 46
12 150 2 198 -19z m-2830 -127 c188 -239 291 -421 362 -640 45 -136 82 -291
73 -301 -3 -3 -23 2 -44 11 -137 57 -392 113 -621 136 l-122 12 -11 52 c-20
95 -85 173 -175 211 -55 23 -162 21 -219 -4 -95 -42 -166 -146 -166 -243 0
-37 0 -38 -47 -45 -244 -34 -519 -117 -716 -216 -288 -144 -549 -385 -715
-661 l-41 -69 -5 34 c-2 18 -12 85 -20 148 -25 181 -94 426 -192 684 -14 35
-16 50 -7 53 74 25 229 176 307 300 55 87 60 92 99 98 118 19 231 67 325 139
30 22 60 44 66 48 6 3 76 19 156 33 180 34 414 109 529 172 47 25 127 68 177
94 l90 47 60 -14 c140 -33 533 -27 684 11 30 7 64 12 75 12 12 -1 50 -40 98
-102z m-540 -631 c67 -44 99 -125 78 -200 -6 -21 -9 -39 -7 -41 2 -2 68 -8
147 -14 767 -54 1289 -374 1570 -963 31 -67 68 -157 82 -201 28 -89 81 -324
75 -331 -14 -13 -260 -80 -403 -109 -488 -98 -995 -137 -1510 -115 -553 22
-1023 67 -1425 136 -212 36 -596 117 -607 127 -10 11 25 158 63 271 207 601
687 998 1370 1136 83 16 186 33 228 37 73 6 77 7 71 27 -38 120 -8 206 90 253
61 29 121 25 178 -13z m-2905 -264 c153 -73 304 -174 451 -300 89 -76 115
-128 147 -287 26 -135 55 -208 101 -258 15 -17 50 -56 76 -87 48 -56 48 -57
50 -133 l2 -76 -95 -36 -94 -35 -24 28 c-132 159 -170 183 -326 209 -117 18
-167 42 -271 130 -106 89 -319 230 -444 294 l-101 52 0 86 0 85 28 -6 c42 -11
244 -110 340 -168 87 -52 148 -93 230 -155 48 -36 79 -42 89 -16 9 23 -89 112
-221 202 -108 73 -281 164 -383 201 -51 18 -63 27 -63 44 0 28 45 118 70 141
19 18 23 17 93 -10 155 -60 347 -167 512 -284 54 -39 102 -71 105 -71 3 0 15
7 26 15 18 15 17 18 -41 71 -117 108 -416 287 -545 325 -22 7 -40 15 -40 19 0
30 132 83 188 75 18 -2 81 -27 140 -55z m5120 -1327 c84 -41 164 -108 182
-153 16 -40 8 -101 -20 -140 -67 -94 -312 -200 -625 -271 -946 -215 -2543
-219 -3505 -9 -226 50 -497 141 -483 163 3 6 1 7 -6 3 -30 -19 -182 102 -201
160 -12 37 -5 108 9 99 5 -2 8 3 7 13 0 9 5 16 11 15 7 -2 12 2 10 8 -3 16 95
90 111 84 7 -3 11 -1 8 3 -7 12 83 54 97 46 7 -4 9 -4 5 1 -9 9 110 60 119 52
3 -3 -2 -34 -11 -69 -9 -35 -19 -93 -23 -130 l-6 -66 39 -11 c22 -5 100 -26
174 -45 455 -120 922 -187 1590 -230 683 -44 1182 -24 1684 69 276 51 560 130
634 175 28 17 32 25 32 64 0 24 -9 88 -20 143 -11 54 -20 101 -20 105 0 10
119 -35 208 -79z m-3043 -963 c696 -36 1129 -36 1815 -3 452 22 608 23 620 3
11 -18 7 -20 -195 -60 -547 -107 -1435 -138 -2181 -75 -199 17 -618 85 -636
103 -10 10 14 39 37 45 23 7 268 1 540 -13z"/>
<path d="M9895 11126 c-15 -22 -14 -30 10 -103 48 -147 78 -326 98 -594 l12
-154 29 -3 c16 -2 40 2 54 10 l25 13 -6 200 c-3 110 -12 236 -20 280 -31 166
-87 352 -110 367 -27 17 -76 9 -92 -16z"/>
<path d="M9667 11122 c-22 -25 -21 -39 8 -136 51 -169 90 -408 102 -621 3 -66
10 -128 15 -137 11 -23 56 -23 87 -1 l24 16 -6 166 c-4 91 -14 213 -22 271
-27 178 -92 415 -122 445 -20 21 -66 19 -86 -3z"/>
<path d="M9398 11085 c-9 -21 -7 -40 15 -108 62 -198 98 -385 118 -631 12
-138 14 -149 35 -158 30 -14 80 6 87 33 8 30 -10 311 -27 419 -23 156 -97 420
-127 456 -6 8 -29 14 -50 14 -32 0 -41 -5 -51 -25z"/>
<path d="M9156 11017 c-14 -20 -12 -33 28 -157 62 -193 79 -280 124 -650 7
-51 9 -55 35 -58 16 -2 39 4 53 13 22 14 24 21 24 98 -1 106 -23 286 -50 407
-27 120 -98 337 -117 356 -23 23 -80 18 -97 -9z"/>
<path d="M5106 6644 c-148 -54 -275 -226 -548 -746 -72 -137 -132 -248 -135
-248 -2 0 -65 124 -139 275 -74 151 -148 291 -166 310 -65 75 -180 105 -327
86 -268 -34 -432 -177 -431 -375 1 -66 28 -126 75 -162 31 -23 50 -29 104 -32
76 -4 118 16 151 70 57 94 -18 200 -97 138 -30 -24 -85 -26 -107 -5 -44 45
-21 142 49 204 86 75 220 106 264 62 52 -52 54 -67 42 -300 -25 -461 -50 -690
-85 -773 -40 -94 -120 -147 -221 -148 -75 0 -113 22 -150 85 -23 39 -32 46
-54 43 -35 -4 -68 -68 -55 -107 21 -60 184 -102 316 -81 109 17 189 64 237
140 64 100 86 220 105 578 8 145 16 265 18 267 2 2 78 -144 168 -326 l165
-330 44 3 45 3 76 170 c115 257 225 473 235 463 2 -2 11 -84 19 -183 35 -390
70 -654 96 -713 15 -34 29 -47 66 -63 86 -38 263 -12 344 51 38 29 16 44 -43
29 -58 -16 -72 -6 -86 62 -27 126 -126 1191 -116 1254 13 92 82 191 154 222
45 19 75 10 101 -31 11 -19 26 -37 33 -39 36 -13 65 44 52 103 -12 56 -109 77
-199 44z"/>
<path d="M10369 6356 c-73 -30 -124 -65 -111 -78 6 -6 18 -6 32 2 27 15 65 6
76 -17 5 -10 11 -304 14 -653 l5 -634 34 -23 c63 -43 202 -27 231 26 6 13 10
141 10 344 l0 324 28 39 c40 55 59 68 98 68 45 0 80 -35 100 -98 37 -121 27
-541 -17 -682 -22 -70 -67 -131 -105 -140 -15 -4 -24 -13 -24 -26 0 -19 4 -20
53 -15 126 15 268 123 327 249 56 121 65 174 65 393 0 179 -2 207 -22 271 -43
134 -111 193 -224 194 -75 0 -159 -42 -228 -115 l-51 -54 0 277 c0 303 -1 310
-59 349 -48 32 -153 32 -232 -1z"/>
<path d="M12478 6365 c-170 -47 -258 -177 -258 -381 l0 -94 -85 0 -85 0 0 -35
0 -35 85 0 85 0 0 -412 c0 -227 -5 -452 -10 -499 -26 -224 -99 -330 -229 -332
-61 -1 -105 25 -142 86 -33 54 -57 60 -88 21 -28 -35 -27 -87 0 -113 51 -48
195 -71 319 -52 200 31 346 163 406 366 15 52 18 117 21 498 l4 437 100 0 99
0 0 35 0 35 -100 0 -100 0 0 138 c0 164 15 227 61 266 63 53 141 26 198 -68
18 -31 40 -56 48 -56 8 0 25 11 38 25 23 22 30 46 26 85 -3 27 -59 69 -112 84
-64 19 -214 20 -281 1z"/>
<path d="M9845 6319 c-35 -5 -93 -25 -141 -49 -176 -86 -295 -272 -340 -533
-20 -113 -14 -414 10 -517 37 -160 94 -276 176 -359 194 -197 519 -200 727 -7
57 53 58 54 40 74 -18 20 -19 20 -81 -28 -198 -149 -406 -90 -495 140 -55 142
-66 220 -66 480 0 241 11 337 52 465 55 172 175 284 281 260 46 -10 63 -45 73
-151 10 -106 19 -131 55 -144 83 -32 177 75 159 181 -15 91 -107 160 -243 185
-86 15 -120 15 -207 3z"/>
<path d="M7081 6104 c-42 -101 -153 -189 -264 -210 -35 -6 -38 -9 -35 -38 3
-30 5 -31 56 -34 l52 -3 0 -371 c0 -358 1 -373 21 -416 13 -26 38 -54 62 -70
37 -24 50 -27 131 -27 74 0 99 4 132 22 47 25 95 77 124 133 28 55 6 57 -45 3
-48 -50 -89 -57 -121 -22 -18 20 -19 43 -22 385 l-3 364 73 0 c111 1 158 13
191 50 24 27 28 38 25 82 -2 42 -8 55 -31 72 -26 19 -30 19 -55 5 -15 -8 -28
-25 -30 -38 -4 -25 23 -61 45 -61 18 0 16 -27 -3 -34 -9 -3 -60 -6 -115 -6
l-99 0 0 135 0 135 -33 0 c-31 0 -35 -4 -56 -56z"/>
<path d="M5505 5886 c-68 -17 -127 -49 -158 -86 -77 -91 -43 -223 60 -237 32
-4 45 0 70 21 57 48 50 108 -16 135 -16 7 -32 19 -35 27 -15 40 106 93 179 80
42 -8 88 -46 105 -86 19 -46 8 -123 -23 -164 -22 -28 -49 -43 -148 -82 -142
-55 -224 -105 -261 -160 -57 -82 -60 -210 -8 -301 39 -67 106 -103 195 -103
86 0 146 24 209 81 l54 49 23 -47 c16 -30 36 -53 59 -65 46 -24 132 -23 187 1
40 19 123 94 123 112 0 14 -23 10 -44 -6 -30 -22 -55 -18 -66 11 -6 14 -10
154 -10 325 0 328 -1 335 -60 403 -62 70 -165 106 -300 105 -47 0 -107 -6
-135 -13z m199 -432 c23 -23 23 -271 0 -320 -22 -46 -59 -74 -98 -74 -69 0
-100 55 -100 180 -1 62 4 85 26 130 41 83 130 126 172 84z"/>
<path d="M6330 5891 c-126 -39 -187 -121 -178 -241 5 -75 43 -137 160 -267
117 -129 148 -176 148 -224 0 -56 -18 -86 -65 -109 -75 -36 -154 -21 -233 44
-26 23 -31 24 -42 10 -11 -13 -6 -22 31 -60 24 -25 73 -59 109 -77 61 -30 71
-32 175 -32 90 0 118 4 155 21 98 45 154 134 155 244 0 106 -32 159 -196 321
-108 107 -140 145 -150 177 -24 80 30 139 118 129 43 -5 83 -29 83 -51 0 -7
-13 -20 -30 -29 -34 -21 -41 -64 -14 -91 25 -25 96 -21 122 7 42 45 23 143
-35 185 -62 44 -233 67 -313 43z"/>
<path d="M7786 5889 c-128 -30 -269 -143 -324 -260 -44 -95 -56 -157 -49 -273
8 -158 61 -264 172 -348 115 -87 302 -104 441 -39 75 35 141 85 174 131 33 46
2 49 -53 7 -79 -61 -181 -71 -267 -27 -81 41 -170 177 -170 260 0 27 13 37
193 143 105 63 205 129 221 145 33 36 45 105 26 152 -18 44 -72 87 -132 105
-56 16 -170 18 -232 4z m86 -90 c42 -23 74 -155 52 -213 -5 -14 -167 -116
-209 -132 -37 -14 -8 231 35 301 30 49 80 67 122 44z"/>
<path d="M8315 5881 c-112 -40 -172 -107 -68 -76 14 5 28 0 42 -14 21 -21 21
-29 21 -400 0 -218 4 -390 10 -405 13 -36 59 -56 129 -56 65 0 99 9 124 35 15
15 17 52 17 335 l0 318 37 32 c49 43 129 80 175 80 28 0 42 -7 62 -31 31 -37
51 -33 60 11 24 122 -7 190 -87 190 -58 0 -121 -41 -189 -124 l-53 -65 -6 50
c-13 94 -66 139 -164 139 -33 -1 -83 -9 -110 -19z"/>
<path d="M11656 5889 c-65 -15 -177 -81 -231 -134 -182 -183 -194 -506 -25
-697 115 -131 339 -166 518 -81 72 34 182 137 164 155 -9 9 -18 7 -39 -10
-153 -124 -340 -75 -429 112 -59 124 -64 116 157 246 104 62 203 126 219 142
88 88 37 221 -101 262 -57 17 -171 19 -233 5z m98 -100 c48 -38 70 -172 35
-215 -12 -15 -201 -124 -214 -124 -13 0 3 182 20 239 20 64 70 121 108 121 13
0 36 -9 51 -21z"/>
<path d="M6959 4328 c0 -62 -3 -108 -5 -101 -3 7 -21 22 -40 34 -42 25 -118
28 -167 4 -92 -43 -122 -186 -61 -281 54 -81 204 -90 260 -15 10 12 13 10 19
-17 5 -25 12 -32 31 -32 l24 0 0 260 0 260 -30 0 -30 0 -1 -112z m-52 -113
c69 -45 68 -185 -1 -230 -66 -43 -153 -19 -182 50 -55 132 69 254 183 180z"/>
<path d="M9376 4425 c-9 -9 -16 -20 -16 -25 0 -15 32 -41 48 -38 24 5 39 35
26 56 -15 23 -38 26 -58 7z"/>
<path d="M10140 4180 l0 -260 30 0 29 0 3 92 3 92 80 -91 c69 -79 84 -91 113
-92 17 -1 32 3 32 7 0 4 -16 24 -36 43 -20 18 -57 59 -84 89 l-48 56 76 79
c76 79 77 80 48 83 -25 3 -41 -8 -107 -74 l-79 -79 0 158 0 157 -30 0 -30 0 0
-260z"/>
<path d="M7613 4420 c-26 -11 -63 -66 -63 -94 0 -11 10 -40 22 -65 16 -34 18
-46 9 -49 -30 -10 -82 -67 -92 -102 -47 -157 140 -256 291 -155 l48 33 33 -34
c25 -26 41 -34 68 -34 l35 0 -53 54 -53 54 41 68 c23 37 41 71 41 76 0 4 -11
8 -24 8 -19 0 -32 -12 -58 -55 -18 -30 -35 -55 -39 -55 -15 0 -199 201 -204
223 -11 41 -2 70 26 86 35 19 76 7 97 -29 21 -37 62 -42 62 -7 -1 65 -107 109
-187 77z m100 -318 c73 -74 77 -79 60 -94 -65 -57 -152 -62 -204 -12 -23 22
-29 36 -29 72 0 37 6 50 34 78 19 19 40 34 48 34 7 0 48 -35 91 -78z"/>
<path d="M5140 4170 l0 -250 30 0 30 0 0 115 0 115 105 0 105 0 0 25 0 25
-105 0 -105 0 0 90 0 90 125 0 c118 0 125 1 125 20 0 19 -7 20 -155 20 l-155
0 0 -250z"/>
<path d="M8420 4170 l0 -253 118 5 c143 6 195 25 241 88 36 49 46 91 45 177
-1 88 -40 164 -102 201 -43 25 -57 27 -174 31 l-128 3 0 -252z m225 199 c85
-24 132 -110 122 -222 -11 -128 -71 -177 -214 -177 l-83 0 0 205 0 205 68 0
c37 0 85 -5 107 -11z"/>
<path d="M10705 4282 c-45 -7 -77 -26 -90 -53 -39 -75 -4 -118 120 -148 62
-15 75 -26 75 -61 0 -37 -29 -60 -75 -60 -30 0 -44 7 -71 36 -25 26 -41 34
-59 32 l-25 -3 17 -35 c24 -46 70 -71 135 -72 89 -2 138 35 138 104 0 55 -22
75 -116 104 -88 27 -100 37 -90 79 12 47 120 43 133 -5 4 -14 14 -20 35 -20
26 0 29 3 23 23 -16 52 -87 90 -150 79z"/>
<path d="M5694 4262 c-67 -42 -97 -125 -80 -217 9 -45 70 -110 117 -123 46
-12 123 0 157 25 94 70 94 238 -1 307 -41 30 -151 34 -193 8z m140 -37 c45
-21 66 -62 66 -127 0 -108 -83 -168 -170 -123 -86 44 -84 213 3 250 42 18 62
18 101 0z"/>
<path d="M6221 4263 c-81 -40 -115 -165 -69 -252 28 -54 62 -81 118 -91 74
-14 138 12 184 74 17 22 21 42 21 106 0 87 -13 116 -75 158 -41 27 -128 30
-179 5z m139 -38 c82 -43 88 -189 10 -242 -37 -26 -62 -28 -108 -12 -72 25
-99 155 -45 219 42 51 90 62 143 35z"/>
<path d="M9010 4100 l0 -180 30 0 30 0 0 121 c0 119 0 121 28 149 16 16 45 32
65 35 30 6 37 12 37 31 0 36 -49 33 -93 -6 -19 -16 -37 -30 -41 -30 -3 0 -6
14 -6 30 0 25 -4 30 -25 30 l-25 0 0 -180z"/>
<path d="M9377 4273 c-4 -3 -7 -84 -7 -180 l0 -173 30 0 30 0 0 180 0 180 -23
0 c-13 0 -27 -3 -30 -7z"/>
<path d="M9640 4100 l0 -180 25 0 25 0 0 111 c0 125 14 170 61 194 36 19 63
19 99 0 39 -20 50 -64 50 -197 l0 -108 25 0 25 0 0 129 c0 70 -5 142 -11 159
-15 44 -65 72 -127 72 -43 0 -57 -5 -85 -30 l-35 -30 -6 30 c-4 21 -11 30 -26
30 -19 0 -20 -6 -20 -180z"/>
</g>
</svg>
