<?xml version="1.0" encoding="iso-8859-1"?>
<!-- Uploaded to: SVG Repo, www.svgrepo.com, Generator: SVG Repo Mixer Tools -->
<svg fill="#000000" height="800px" width="800px" version="1.1" id="Layer_1" xmlns="http://www.w3.org/2000/svg" xmlns:xlink="http://www.w3.org/1999/xlink" 
	 viewBox="0 0 512.001 512.001" xml:space="preserve">
<g>
	<g>
		<path d="M450.159,390.614C571.134,230.741,456.675,0,255.816,0C18.22,0-78.106,307.337,116.225,443.254
			c59.599,41.684,135.403,55.722,207.724,34.429c7.557,5.483,17.814,4.526,24.25-1.912l11.884-11.884
			c4.295-2.037,8.544-4.191,12.726-6.484l49.107,49.107c7.318,7.32,19.186,7.321,26.506,0l45.557-45.557
			c7.318-7.32,7.32-19.185,0.001-26.505L450.159,390.614z M137.71,412.538C-26.9,297.406,54.884,37.485,255.816,37.485
			c148.113,0,248.687,152.752,188.76,289.125l-24.499-6.564c55.808-119.617-32.014-257.571-164.261-257.571
			c-177.879,0-249.115,231.67-101.054,331.393c43.938,29.595,98.209,38.5,148.961,24.537c7.517,28.045,5.239,19.549,6.491,24.217
			C249.6,459.429,186.938,446.967,137.71,412.538z M255.816,224.912c-12.601,0-23.05-10.244-23.291-22.834
			c-0.562-29.435,46.584-32.334,46.584-3.302c0,10.351,8.392,18.743,18.743,18.743s18.743-8.392,18.743-18.743
			c0-26.433-17.799-48.771-42.037-55.702v-8.822c0-10.351-8.392-18.743-18.743-18.743s-18.743,8.392-18.743,18.743v9.824
			c-66.544,22.346-48.881,118.321,18.743,118.321c20.04,0,31.265,24.293,16.631,39.21c-13.837,14.102-39.927,7.232-39.927-13.074
			c0-10.351-8.392-18.743-18.743-18.743s-18.743,8.392-18.743,18.743c0,26.433,17.799,48.772,42.037,55.702v8.822
			c0,10.351,8.392,18.743,18.743,18.743s18.743-8.392,18.743-18.743v-9.824c2.778-0.933,5.489-2.058,8.112-3.371l11.358,42.382
			c-40.319,11.352-82.655,4.559-118.326-19.466C58.276,283.687,114.614,99.961,255.816,99.961
			c107.805,0,177.256,114.998,127.352,210.195l-66.946-17.937C320.176,256.052,291.301,224.912,255.816,224.912z M435.171,466.75
			l-52.21-52.221c-7.316-7.332-19.196-7.335-26.518-0.013L344.65,426.31l-25.315-94.447c49.392,13.236,91.94,24.634,94.452,25.308
			l-11.789,11.793c-7.33,7.335-7.305,19.199,0.003,26.505c4.776,4.774,46.559,46.567,52.223,52.231L435.171,466.75z"/>
	</g>
</g>
</svg>